<svg width="650" height="72" viewBox="0 0 650 72" fill="none" xmlns="http://www.w3.org/2000/svg">
<path d="M191.646 66.2692L186.984 65.8162V30.6425C186.984 25.5699 186.984 24.1225 187.148 22.6941C187.214 22.1238 187.306 21.5566 187.434 20.7631L187.434 20.7607C187.506 20.3161 187.59 19.8003 187.686 19.173L187.753 18.7364L187.802 18.4129L187.866 17.9806C188.458 13.9641 187.188 10.7313 184.547 8.33515C183.338 7.23715 181.942 6.66573 180.358 6.6167C179.423 6.5882 178.562 6.80445 177.766 7.24931C177.753 7.25349 177.737 7.26167 177.725 7.26565C177.006 7.59232 176.361 8.06987 175.794 8.69849C175.226 9.32293 174.814 10.0127 174.565 10.7639C174.312 11.5191 174.214 12.2823 174.263 13.062C174.316 13.8417 174.5 14.5927 174.826 15.3152C175.149 16.0377 175.614 16.6703 176.218 17.2214C176.823 17.7683 177.5 18.1683 178.251 18.4214C178.999 18.6746 179.766 18.7726 180.542 18.7236C181.321 18.6706 182.069 18.4868 182.791 18.1603C183.514 17.8337 184.147 17.3683 184.694 16.7642C184.886 16.5479 185.057 16.3193 185.216 16.0867C185.216 16.0867 187.155 21.4665 179.048 23.3197H179.043C174.896 24.5321 170.319 24.3402 170.319 24.3402V26.2015H175.888V65.8162L171.225 66.2692V68.1306H191.646V66.2692Z" fill="black"/>
<path d="M273.44 65.812V36.2756L273.427 36.2796C273.427 33.7408 273.125 31.5161 272.521 29.6099C271.921 27.7037 271.178 26.2382 270.304 25.2095C269.431 24.1769 268.39 23.3484 267.181 22.7116C265.973 22.0748 264.87 21.6706 263.874 21.487C262.878 21.3033 261.837 21.2136 260.751 21.2136C255.048 21.2136 250.398 23.8463 246.805 29.1079V23.7279L244.846 20.6461C238.644 23.7851 230.144 24.3198 230.144 24.3198V26.2015H235.713V65.8162L231.051 66.2732V68.1346H251.472V66.2732L246.809 65.8162V38.7738C246.809 34.7489 247.679 31.4998 249.414 29.018C251.149 26.5362 253.378 25.2994 256.093 25.2994C260.229 25.2994 262.298 28.5201 262.298 34.9612V65.812L257.681 66.2692V68.1306H278.057V66.2692L273.44 65.812Z" fill="black"/>
<path fill-rule="evenodd" clip-rule="evenodd" d="M227.928 58.5545C224.756 63.8773 220.514 66.5385 215.202 66.5385L215.211 66.5305C207.723 66.5305 203.98 59.9381 203.98 46.7496V43.9822L226.348 43.9782L229.165 39.5493C229.136 39.1738 229.107 38.8023 229.071 38.435C228.948 37.1042 228.74 35.6674 228.397 34.2837C228.022 32.7367 227.503 31.2754 226.846 29.8957C225.968 28.0669 224.866 26.5118 223.539 25.2422C222.212 23.9728 220.551 22.9809 218.558 22.2707C216.566 21.5604 214.316 21.2054 211.81 21.2054C209.152 21.2054 206.731 21.683 204.543 22.638C202.351 23.5892 200.518 24.8504 199.04 26.4261C197.558 27.9975 196.304 29.8304 195.28 31.9161C194.251 34.0061 193.512 36.1776 193.059 38.4308C192.606 40.684 192.381 42.9902 192.381 45.3496C192.381 52.8521 194.096 58.7505 197.521 63.0446C200.946 67.3427 205.829 69.7143 213.014 69.7143C220.199 69.7143 225.801 66.208 229.695 59.6444L227.928 58.5545ZM204 41.1779C204.098 38.7084 204.278 36.5164 204.539 34.6102V34.6142C204.825 32.5202 205.253 30.5895 205.829 28.8099C206.4 27.0342 207.209 25.6749 208.25 24.7238C209.291 23.7769 210.536 23.3033 211.985 23.3033C214.402 23.3033 216.129 24.4749 217.17 26.822C218.211 29.169 218.734 32.5284 218.734 36.8919C218.734 38.2636 218.689 39.6962 218.603 41.1779H204Z" fill="black"/>
<path fill-rule="evenodd" clip-rule="evenodd" d="M122.721 65.812V36.5449H122.717C122.717 34.0061 122.427 31.7732 121.855 29.8507C121.284 27.9323 120.573 26.4383 119.728 25.3812C118.879 24.3238 117.879 23.4626 116.715 22.7973C115.552 22.132 114.474 21.7033 113.478 21.5034C112.482 21.3075 111.457 21.2094 110.4 21.2094C105.023 21.2094 100.316 24.0382 96.2702 29.6956H96.1803C95.67 27.9975 94.9596 26.5567 94.0533 25.3606C93.147 24.1648 92.1427 23.287 91.0404 22.7279C89.9381 22.1687 88.8889 21.7768 87.8928 21.5482C86.8966 21.3238 85.8719 21.2094 84.8146 21.2094C79.744 21.2094 75.4125 23.8423 71.8199 29.1037V23.7484L69.8603 20.6665C65.7165 22.7646 60.5439 23.6994 57.5718 24.087L55.1958 24.3402H55.1591V26.2015H60.7276V54.7053L60.7072 60.7545C60.7072 62.9138 59.2742 64.8854 57.1309 65.6364L56.8206 65.7427C54.0323 66.7183 50.9867 65.2446 50.011 62.4526L48.0105 56.7177L28.9329 1.51854H26.8957L5.47877 65.5876L0 66.0406V68.1306H14.1704V66.0406L8.05891 65.5876L13.256 49.5172H33.6523L38.9392 65.5876L32.8276 66.0406V68.1306H76.4944V66.2692L71.8321 65.8162V38.7738C71.8321 34.9899 72.7547 31.7977 74.596 29.1975C76.4331 26.5975 78.3233 25.2954 80.2544 25.2954C80.7035 25.2954 81.1117 25.3279 81.4751 25.3851C81.8343 25.4463 82.312 25.6504 82.8999 25.9974C83.4877 26.3444 83.9858 26.8343 84.394 27.4709C84.8023 28.1077 85.1575 29.067 85.4596 30.3527C85.7617 31.6427 85.9127 33.1774 85.9127 34.9612V65.8162L81.2954 66.2692V68.1306H101.716V66.2692L97.054 65.8162V37.8633C97.054 33.9652 98.0093 30.8957 99.9281 28.6548C101.843 26.418 103.815 25.2954 105.836 25.2954C106.042 25.2954 106.24 25.3024 106.429 25.3154C106.651 25.3305 106.86 25.3542 107.056 25.3851C107.42 25.4463 107.901 25.6504 108.505 25.9974C109.106 26.3444 109.612 26.8343 110.02 27.4709C110.428 28.1077 110.788 29.067 111.106 30.3527C111.42 31.6427 111.58 33.1774 111.58 34.9612V65.812L106.962 66.265V68.1264H127.383V66.265L122.721 65.812ZM32.5541 46.0967H14.3011L23.3684 18.3969H23.5481L32.5541 46.0967Z" fill="black"/>
<path fill-rule="evenodd" clip-rule="evenodd" d="M396.891 66.2692L392.229 65.8162V41.3698C392.229 38.6512 392.119 36.349 391.89 34.4755C391.662 32.5978 391.196 30.7609 390.486 28.961C389.775 27.1608 388.783 25.7403 387.518 24.6953C386.248 23.6503 384.55 22.8136 382.423 22.1768C380.296 21.54 377.72 21.2217 374.703 21.2217C370.449 21.2217 366.681 22.4176 363.406 24.8055C360.132 27.1975 358.495 30.1774 358.495 33.7448C358.495 35.3776 359.01 36.8022 360.034 38.0104C360.634 38.7206 361.373 39.2187 362.239 39.5124C362.255 39.5206 362.267 39.5288 362.28 39.533C363.006 39.8513 363.79 40.0105 364.635 40.0105C365.48 40.0105 366.268 39.8473 366.991 39.533C367.718 39.2145 368.35 38.7738 368.893 38.2145C369.436 37.6593 369.865 37.0145 370.183 36.2878C370.498 35.5613 370.657 34.7898 370.657 33.9734C370.657 33.157 370.502 32.3855 370.183 31.659C369.865 30.9323 369.428 30.2957 368.869 29.7528C368.31 29.2057 367.669 28.7772 366.946 28.4589C366.219 28.1404 365.452 27.9812 364.635 27.9812C364.345 27.9812 364.06 28.0099 363.782 28.0465C365.815 24.8912 368.926 23.3075 373.119 23.3075C374.568 23.3075 375.797 23.5443 376.809 24.0137C377.822 24.4831 378.606 25.0708 379.165 25.7852C379.724 26.4995 380.153 27.516 380.455 28.8344C380.757 30.1528 380.945 31.4304 381.022 32.6753C381.1 33.9204 381.137 35.5408 381.137 37.5411V43.8189C379.806 43.6964 378.402 43.6352 376.924 43.6352C374.143 43.6352 371.616 43.9168 369.338 44.4761C367.06 45.0353 365.15 45.7823 363.611 46.7211C362.071 47.6598 360.773 48.762 359.716 50.0314C358.658 51.305 357.899 52.6277 357.43 54.0031C356.96 55.3787 356.727 56.8074 356.727 58.2891C356.727 61.3423 357.707 63.9752 359.671 66.1835C361.63 68.3877 364.456 69.7183 368.138 69.7183C371.126 69.7183 373.67 68.7917 375.768 67.3836C377.863 65.9752 379.655 63.8365 381.133 60.9628H381.223L382.492 68.1306H396.891V66.2692ZM381.063 45.5292V51.3092H381.067C381.067 54.6235 380.565 56.0849 380.035 57.5096C379.859 58.0156 379.655 58.5095 379.422 58.9912C379.23 59.3791 379.014 59.7546 378.781 60.1219C378.761 60.1546 378.744 60.1831 378.728 60.2116C378.722 60.2176 378.717 60.2234 378.713 60.2293C378.708 60.2357 378.704 60.2421 378.7 60.2485C377.834 61.5709 376.703 62.7303 375.389 63.6078C373.96 64.559 372.123 65.2161 370.396 64.8691C368.967 64.5835 367.828 63.5955 367.142 62.3303C366.28 60.7424 366.085 58.8525 366.211 57.0727C366.366 54.889 366.93 52.7664 368.101 50.9092C369.081 49.354 370.408 48.0722 371.939 47.1211C376.136 44.4476 380.043 45.2516 381.063 45.5292Z" fill="black"/>
<path fill-rule="evenodd" clip-rule="evenodd" d="M169 36.9288C168.625 34.553 168.123 32.5651 167.506 30.961C166.886 29.3568 166.139 27.9363 165.265 26.6954C164.473 25.5669 163.56 24.861 162.733 24.2218L162.732 24.2206L162.481 24.0258C161.591 23.3279 160.631 22.7646 159.606 22.3237C158.578 21.8829 157.659 21.5891 156.843 21.438C156.026 21.2869 155.214 21.2094 154.397 21.2094C151.65 21.2094 149.302 21.7605 147.355 22.8667C145.407 23.9728 143.713 25.7443 141.99 28.6467H141.811V3.08173L139.851 0C135.76 2.06545 130.678 3.0042 127.685 3.40422L125.15 3.67368V5.53504H130.719V68.351C132.76 68.351 134.777 67.8775 136.606 66.959L141.811 64.3588C143.048 66.0815 144.558 67.7469 146.338 68.5182C148.122 69.2858 149.857 69.6735 151.548 69.6735C154.565 69.6735 157.247 69.0245 159.586 67.7224C161.925 66.4243 163.812 64.212 165.244 61.9261C166.677 59.6444 167.755 57.0563 168.482 54.1705C169.205 51.2805 169.568 48.1416 169.568 44.7537C169.568 41.9127 169.376 39.3044 169 36.9288ZM158.214 45.5332C158.214 56.9543 154.05 66.212 148.914 66.212C146.02 66.212 141.733 62.0405 141.733 57.5341V34.0183C141.733 29.4834 146.024 24.8546 148.914 24.8546C154.05 24.8546 158.214 34.1121 158.214 45.5332Z" fill="black"/>
<path d="M309.582 59.2852L307.635 58.1055L307.639 58.1137C307.067 59.0484 306.553 59.8443 306.1 60.4934C305.647 61.1424 305.067 61.8649 304.357 62.6486C303.646 63.4364 302.862 64.0324 302.001 64.4406C301.14 64.8487 300.242 65.0528 299.307 65.0528C298.825 65.0528 298.364 64.9917 297.927 64.8691C297.49 64.7467 296.918 64.4609 296.208 64.0079C295.498 63.5548 294.922 62.7139 294.485 61.4894C294.048 60.2648 293.828 58.7299 293.828 56.8849V24.9811H303.765V22.5238H293.828V13.6824L293.816 13.6703V12.7355L291.856 9.65359C289.01 11.0904 285.683 11.9803 282.911 12.5233L282.691 12.5478V22.5157H274.991V24.973H282.691V54.2971C282.691 56.8359 282.94 59.0524 283.438 60.9423C283.936 62.8363 284.577 64.318 285.361 65.3917C286.144 66.461 287.128 67.5223 288.304 68.1551C289.48 68.7917 290.619 69.2041 291.721 69.404C292.824 69.5999 294.081 69.698 295.502 69.698C299.245 69.698 302.548 68.0285 305.418 65.0937C306.594 63.8853 307.982 61.9464 309.582 59.2852Z" fill="black"/>
<path d="M350.293 65.8162V36.2838C350.293 33.7448 349.991 31.5203 349.387 29.6139C348.779 27.7077 348.04 26.2424 347.166 25.2137C346.292 24.1811 345.251 23.3524 344.043 22.7156C342.835 22.0788 341.732 21.6748 340.736 21.491C339.74 21.3075 338.699 21.2176 337.613 21.2176C331.91 21.2176 327.26 23.8504 323.667 29.1118H323.487V3.08592L321.548 0.0039862C317.629 2.00426 312.787 2.9472 309.799 3.36754L307.006 3.66153V5.53504H312.575V65.8162L307.908 66.2732V68.1346H328.329V66.2732L323.663 65.8162V38.7738C323.663 34.7489 324.533 31.4998 326.268 29.018C328.003 26.5362 330.232 25.2994 332.947 25.2994C337.082 25.2994 339.152 28.5201 339.152 34.9612V65.8162L334.535 66.2732V68.1346H354.911V66.2732L350.293 65.8162Z" fill="black"/>
<path fill-rule="evenodd" clip-rule="evenodd" d="M460.828 7.71888C460.828 4.92276 458.925 3.02872 456.145 3.02872H450.528V16.8907H453.018V12.3477H456.039C458.856 12.3477 460.828 10.5148 460.828 7.71888ZM455.48 10.2904H453.018V5.09815H455.492C457.288 5.09815 458.301 6.06162 458.301 7.7147C458.301 9.36778 457.256 10.2904 455.48 10.2904Z" fill="black"/>
<path d="M482.077 16.8907H473.059V3.02872H482.077V5.1717H475.549V8.85356H481.722V10.87H475.549V14.7478H482.077V16.8907Z" fill="black"/>
<path fill-rule="evenodd" clip-rule="evenodd" d="M494.66 16.8907H497.15V11.6945H499.91L502.645 16.8907H505.495L502.453 11.3109C504.115 10.7107 505.078 9.18421 505.078 7.35953C505.078 4.69814 503.245 3.02872 500.318 3.02872H494.66V16.8907ZM500.028 9.72295H497.15V5.086H499.971C501.555 5.086 502.519 5.93904 502.519 7.40856C502.519 8.87807 501.612 9.72295 500.028 9.72295Z" fill="black"/>
<path d="M519.375 13.1274C519.531 14.3641 520.768 15.1641 522.535 15.1641C524.176 15.1641 525.364 14.3274 525.364 13.1682C525.364 12.1681 524.601 11.5803 522.817 11.1679L521.012 10.7558C518.481 10.1883 517.293 8.93926 517.293 6.87381C517.293 4.35951 519.359 2.6859 522.478 2.6859C525.405 2.6859 527.52 4.35951 527.634 6.73927H525.25C525.075 5.5187 523.993 4.75136 522.47 4.75136C520.865 4.75136 519.804 5.52288 519.804 6.7024C519.804 7.63318 520.51 8.18427 522.237 8.57193L523.842 8.93926C526.671 9.57207 527.859 10.7436 527.859 12.8579C527.859 15.556 525.765 17.2377 522.384 17.2377C519.188 17.2377 517.073 15.6419 516.95 13.1232H519.383L519.375 13.1274Z" fill="black"/>
<path d="M540.143 3.02872H542.634V16.8907H540.143V3.02872Z" fill="black"/>
<path fill-rule="evenodd" clip-rule="evenodd" d="M558.245 13.3476L557.049 16.8907H554.53L559.474 3.02872H562.275L567.227 16.8907H564.553L563.377 13.3476H558.245ZM558.825 11.3884H562.793L560.899 5.66978H560.735L558.825 11.3884Z" fill="black"/>
<path d="M579.111 3.02872V16.8907H581.511V7.45759H581.679L588.517 16.8907H590.669V3.02872H588.272V12.4537H588.109L581.271 3.02872H579.111Z" fill="black"/>
<path fill-rule="evenodd" clip-rule="evenodd" d="M611.412 13.3476H606.288L605.092 16.8907H602.569L607.513 3.02872H610.314L615.266 16.8907H612.592L611.412 13.3476ZM606.868 11.3884H610.836L608.942 5.66978H608.779L606.868 11.3884Z" fill="black"/>
<path d="M632.106 15.1641C630.339 15.1641 629.101 14.3641 628.946 13.1274L628.95 13.1232H626.517C626.644 15.6419 628.759 17.2377 631.955 17.2377C635.336 17.2377 637.43 15.556 637.43 12.8579C637.43 10.7436 636.242 9.57207 633.413 8.93926L631.808 8.57193C630.081 8.18427 629.375 7.63318 629.375 6.7024C629.375 5.52288 630.437 4.75136 632.041 4.75136C633.564 4.75136 634.646 5.5187 634.821 6.73927H637.205C637.091 4.35951 634.976 2.6859 632.049 2.6859C628.93 2.6859 626.864 4.35951 626.864 6.87381C626.864 8.93926 628.052 10.1883 630.583 10.7558L632.388 11.1679C634.172 11.5803 634.935 12.1681 634.935 13.1682C634.935 14.3274 633.747 15.1641 632.106 15.1641Z" fill="black"/>
<path fill-rule="evenodd" clip-rule="evenodd" d="M456.145 27.8628C458.925 27.8628 460.828 29.7568 460.828 32.5529C460.828 35.3491 458.856 37.1817 456.039 37.1817H453.018V41.725H450.528V27.8588H456.149L456.145 27.8628ZM453.018 35.1244H455.48C457.256 35.1244 458.301 34.202 458.301 32.5489C458.301 30.8957 457.288 29.9364 455.492 29.9364H453.018V35.1244Z" fill="black"/>
<path d="M473.059 27.8628H475.549V41.7248H473.059V27.8628Z" fill="black"/>
<path d="M490.275 37.9614C490.43 39.1981 491.667 39.9982 493.431 39.9982C495.072 39.9982 496.26 39.1615 496.26 38.0023C496.26 37.0021 495.497 36.4144 493.713 36.002L491.908 35.5898C489.377 35.0224 488.189 33.7733 488.189 31.7079C488.189 29.1936 490.255 27.5199 493.374 27.5199C496.301 27.5199 498.416 29.1936 498.53 31.5733H496.146C495.97 30.3527 494.892 29.5854 493.366 29.5854C491.761 29.5854 490.7 30.3527 490.7 31.5364C490.7 32.4712 491.406 33.0183 493.133 33.4102L494.737 33.7733C497.566 34.4061 498.755 35.5816 498.755 37.6919C498.755 40.39 496.66 42.0718 493.28 42.0718C490.083 42.0718 487.968 40.4759 487.842 37.9572H490.275V37.9614Z" fill="black"/>
<path fill-rule="evenodd" clip-rule="evenodd" d="M517.048 42.072C521.115 42.072 523.633 39.2553 523.633 34.7898C523.633 30.3121 521.094 27.516 517.048 27.516C513.003 27.516 510.451 30.3161 510.451 34.7898C510.451 39.2635 512.982 42.072 517.048 42.072ZM517.048 39.8718C514.538 39.8718 513.003 37.8799 513.003 34.7898C513.003 31.6835 514.578 29.7161 517.048 29.7161C519.518 29.7161 521.094 31.6959 521.094 34.7898C521.094 37.8839 519.559 39.8718 517.048 39.8718Z" fill="black"/>
<path d="M537.767 37.9614C537.922 39.1981 539.159 39.9982 540.923 39.9982C542.564 39.9982 543.752 39.1615 543.752 38.0023C543.752 37.0021 542.989 36.4144 541.205 36.002L539.4 35.5898C536.869 35.0224 535.681 33.7733 535.681 31.7079C535.681 29.1936 537.747 27.5199 540.866 27.5199C543.793 27.5199 545.908 29.1936 546.022 31.5733H543.638C543.462 30.3527 542.38 29.5854 540.858 29.5854C539.253 29.5854 538.192 30.3527 538.192 31.5364C538.192 32.4712 538.898 33.0183 540.625 33.4102L542.229 33.7733C545.059 34.4061 546.247 35.5816 546.247 37.6919C546.247 40.39 544.152 42.0718 540.772 42.0718C537.575 42.0718 535.461 40.4759 535.334 37.9572H537.767V37.9614Z" fill="black"/>
<path fill-rule="evenodd" clip-rule="evenodd" d="M462.306 60.2933C462.306 55.942 459.893 53.4235 455.749 53.4235H450.524V67.2897H455.749C459.921 67.2897 462.306 64.6447 462.306 60.2933ZM455.423 65.1467H453.018V55.5705H455.423C458.158 55.5705 459.77 57.2401 459.77 60.3342C459.77 63.4281 458.195 65.1467 455.423 65.1467Z" fill="black"/>
<path d="M483.661 67.2897H474.643V53.4277H483.661V55.5665H477.133V59.2483H483.306V61.265H477.133V65.1467H483.661V67.2897Z" fill="black"/>
<path d="M502.045 53.0765C498.093 53.0765 495.652 55.8563 495.652 60.3627L495.656 60.3667C495.656 64.8527 498.109 67.6365 502.057 67.6365C505.27 67.6365 507.63 65.7221 507.957 62.8893H505.503C505.168 64.4445 503.825 65.4242 502.057 65.4242C499.681 65.4242 498.203 63.4731 498.203 60.3503C498.203 57.2277 499.681 55.2888 502.045 55.2888C503.8 55.2888 505.144 56.3665 505.491 58.0278H507.944C507.654 55.1338 505.213 53.0765 502.045 53.0765Z" fill="black"/>
<path fill-rule="evenodd" clip-rule="evenodd" d="M532.799 60.3503C532.799 64.8159 530.28 67.6325 526.214 67.6325C522.147 67.6325 519.62 64.8282 519.62 60.3503C519.62 55.8726 522.168 53.0765 526.214 53.0765C530.259 53.0765 532.799 55.8726 532.799 60.3503ZM522.168 60.3503C522.168 63.4444 523.703 65.4323 526.214 65.4323C528.724 65.4323 530.259 63.4444 530.259 60.3503C530.259 57.2564 528.683 55.2767 526.214 55.2767C523.744 55.2767 522.168 57.2483 522.168 60.3503Z" fill="black"/>
<path fill-rule="evenodd" clip-rule="evenodd" d="M545.136 67.2897H547.626V62.0893H550.386L553.122 67.2897H555.971L552.93 61.7056C554.587 61.1097 555.555 59.579 555.555 57.7543C555.555 55.0971 553.722 53.4235 550.794 53.4235H545.136V67.2897ZM550.505 60.1219H547.626V55.4808H550.448C552.032 55.4808 552.995 56.342 552.995 57.8075C552.995 59.2729 552.089 60.1219 550.505 60.1219Z" fill="black"/>
<path fill-rule="evenodd" clip-rule="evenodd" d="M570.738 63.7424L569.541 67.2855H567.023L571.966 53.4235H574.767L579.719 67.2855H577.045L575.869 63.7424H570.738ZM575.286 61.7832L573.391 56.0685H573.228L571.313 61.7832H575.286Z" fill="black"/>
<path d="M597.572 67.5956C600.373 67.31 602.373 65.4814 602.671 62.8893L602.667 62.8975H600.214C599.879 64.4527 598.536 65.4323 596.768 65.4323C594.392 65.4323 592.914 63.4813 592.914 60.3585C592.914 57.2359 594.388 55.297 596.756 55.297C598.511 55.297 599.854 56.3747 600.201 58.0359H602.655C602.365 55.1419 599.924 53.0847 596.756 53.0847C592.804 53.0847 590.362 55.8603 590.362 60.3667C590.362 64.5384 592.477 67.2365 595.943 67.6038L595.363 68.5549V69.5917H595.992C596.862 69.5917 597.307 69.7223 597.307 70.1265C597.307 70.5795 596.719 70.7142 596.139 70.7142C595.674 70.7142 595.212 70.6246 595.065 70.5877V71.8368C595.494 71.9348 595.984 72 596.478 72C597.948 72 599.115 71.4122 599.115 70.0571C599.115 69.0367 598.295 68.4529 597.07 68.4038L597.572 67.5956Z" fill="black"/>
<path fill-rule="evenodd" clip-rule="evenodd" d="M622.312 63.7426H617.189L615.992 67.2855H613.47L618.413 53.4235H621.214L626.166 67.2855H623.492L622.312 63.7426ZM621.737 61.7792L619.842 56.0646H619.679L617.764 61.7792H621.737Z" fill="black"/>
<path d="M618.56 50.7499C618.066 50.7499 617.817 51.1826 617.817 52.1051H616.205C616.205 50.2397 617.103 49.1539 618.495 49.1539C619.385 49.1539 619.835 49.6228 620.221 50.0243C620.508 50.324 620.761 50.5865 621.132 50.5865C621.655 50.5865 621.875 50.0968 621.875 49.166H623.488C623.488 51.0192 622.582 52.1172 621.161 52.1172C620.256 52.1172 619.807 51.6608 619.428 51.2759C619.152 50.9959 618.914 50.7539 618.565 50.7539L618.56 50.7499Z" fill="black"/>
<path fill-rule="evenodd" clip-rule="evenodd" d="M643.415 67.6325C647.481 67.6325 650 64.8159 650 60.3503C650 55.8726 647.461 53.0765 643.415 53.0765C639.369 53.0765 636.822 55.8726 636.822 60.3503C636.822 64.8282 639.349 67.6325 643.415 67.6325ZM643.415 65.4323C640.904 65.4323 639.369 63.4444 639.369 60.3503C639.369 57.2483 640.945 55.2767 643.415 55.2767C645.885 55.2767 647.461 57.2564 647.461 60.3503C647.461 63.4444 645.926 65.4323 643.415 65.4323Z" fill="black"/>
</svg>
