<svg width="650" height="166" viewBox="0 0 650 166" fill="none" xmlns="http://www.w3.org/2000/svg">
<path fill-rule="evenodd" clip-rule="evenodd" d="M270.657 44.8834C272.09 46.9702 273.314 49.3605 274.327 52.0557C275.34 54.7524 276.156 58.0961 276.774 62.0891C277.392 66.0828 277.701 70.47 277.701 75.2513C277.701 80.9482 277.108 86.2262 275.922 91.0828C274.735 95.9414 272.967 100.29 270.619 104.13C268.27 107.972 265.18 111.688 261.35 113.874C257.517 116.061 253.129 117.155 248.186 117.155C245.417 117.155 242.574 116.506 239.658 115.209C236.739 113.912 234.268 111.112 232.241 108.213L223.716 112.589C220.72 114.127 217.42 114.926 214.072 114.926V9.3062H204.951V6.17533L209.106 5.72495C214.007 5.05324 222.333 3.47656 229.03 0L232.241 5.18112V48.1646H232.538C235.357 43.2814 238.137 40.3079 241.326 38.4509C244.515 36.5939 248.359 35.6657 252.858 35.6657C254.193 35.6657 255.528 35.7929 256.863 36.0472C258.197 36.3023 259.705 36.7976 261.387 37.5347C263.067 38.2731 264.637 39.2266 266.095 40.3957C266.229 40.5033 266.365 40.6113 266.502 40.7205L266.506 40.7238C267.861 41.8022 269.355 42.9915 270.657 44.8834ZM232.119 96.7403C232.119 104.319 239.143 111.334 243.879 111.334C252.29 111.334 259.109 95.7657 259.109 76.561C259.109 57.3563 252.29 41.7883 243.879 41.7883C239.143 41.7883 232.119 49.5699 232.119 57.1947V96.7403Z" fill="black"/>
<path d="M573.683 60.9969C573.683 56.7243 573.188 52.9856 572.2 49.781C571.211 46.5763 569.999 44.1094 568.566 42.3796C567.131 40.6511 565.426 39.2515 563.449 38.1828C561.471 37.1156 559.667 36.4284 558.036 36.1235C556.404 35.8178 554.698 35.6654 552.919 35.6654C543.574 35.6654 535.96 40.0905 530.076 48.9414H529.781V5.18147L526.604 0.00035131C520.186 3.36801 512.257 4.95242 507.361 5.65855L502.786 6.1539V9.30656H511.908V110.668L504.269 111.431V114.559H537.716V111.431L530.076 110.668V65.1937C530.076 58.4288 531.498 52.9603 534.341 48.7889C537.184 44.6181 540.83 42.5328 545.28 42.5328C552.053 42.5328 555.44 47.95 555.44 58.7844V110.668L547.875 111.431V114.559H581.247V111.431L573.683 110.668V60.9969Z" fill="black"/>
<path d="M503.819 97.6971C502.88 99.2738 502.04 100.609 501.298 101.703C500.556 102.797 499.604 104.005 498.443 105.327C497.28 106.65 495.995 107.654 494.586 108.34C493.177 109.028 491.706 109.37 490.174 109.37C489.382 109.37 488.628 109.27 487.911 109.065C487.194 108.863 486.255 108.379 485.094 107.616C483.931 106.853 482.992 105.441 482.275 103.381C481.558 101.321 481.2 98.7398 481.2 95.6363V41.9905H497.472V37.8556H481.2V22.9903L481.183 22.9713V21.4038L477.971 16.222C473.307 18.6432 467.859 20.1384 463.321 21.0532L462.957 21.0925V37.8556H450.35V41.9905H462.957V91.2878C462.957 95.5604 463.365 99.2878 464.181 102.466C464.996 105.646 466.046 108.138 467.332 109.943C468.617 111.749 470.225 113.527 472.153 114.595C474.081 115.664 475.947 116.362 477.752 116.693C479.556 117.024 481.62 117.19 483.944 117.19C490.074 117.19 495.488 114.382 500.185 109.447C502.113 107.413 504.387 104.157 507.008 99.6806L503.819 97.6971Z" fill="black"/>
<path fill-rule="evenodd" clip-rule="evenodd" d="M642.362 110.668V69.5425C642.362 64.9642 642.176 61.0991 641.806 57.945C641.435 54.7917 640.667 51.7015 639.506 48.6739C638.345 45.6485 636.725 43.2574 634.649 41.5023C632.572 39.7472 629.791 38.3363 626.306 37.2676C622.821 36.1996 618.605 35.6656 613.661 35.6656C606.691 35.6656 600.523 37.6751 595.158 41.6934C589.794 45.7124 587.112 50.7228 587.112 56.7239C587.112 59.4711 587.952 61.8621 589.634 63.8962C590.622 65.0935 591.831 65.9282 593.247 66.4207C593.269 66.4313 593.29 66.4439 593.312 66.4537C594.498 66.9877 595.783 67.2554 597.169 67.2554C598.552 67.2554 599.838 66.9877 601.025 66.4537C602.211 65.9198 603.25 65.1834 604.139 64.2412C605.029 63.3004 605.734 62.2191 606.253 60.9986C606.772 59.7774 607.032 58.4804 607.032 57.1068C607.032 55.7332 606.772 54.4368 606.253 53.2157C605.734 51.9952 605.017 50.9272 604.103 50.0117C603.187 49.0955 602.137 48.3711 600.951 47.8364C599.764 47.3024 598.503 47.0354 597.169 47.0354C596.692 47.0354 596.229 47.0797 595.771 47.145C599.103 41.8353 604.198 39.1752 611.066 39.1752C613.439 39.1752 615.453 39.5708 617.11 40.3598C618.766 41.1503 620.051 42.1445 620.966 43.3432C621.88 44.5411 622.585 46.2492 623.08 48.4674C623.574 50.6848 623.883 52.8384 624.007 54.9287C624.13 57.0183 624.193 59.7458 624.193 63.11V73.6626C622.016 73.4603 619.717 73.357 617.295 73.357C612.746 73.357 608.606 73.8277 604.874 74.7686C601.14 75.7108 598.014 76.9699 595.492 78.5458C592.971 80.1225 590.845 81.9795 589.115 84.1155C587.383 86.2522 586.135 88.4781 585.369 90.7918C584.603 93.1069 584.22 95.5106 584.22 98.0028C584.22 103.14 585.826 107.566 589.04 111.278C592.253 114.991 596.876 117.226 602.909 117.226C607.803 117.226 611.968 115.665 615.405 113.3C618.84 110.935 621.77 107.337 624.193 102.504H624.341L626.418 114.559H650V111.431L642.362 110.668ZM624.075 86.2782C624.075 91.8528 623.254 94.3077 622.386 96.7079C622.097 97.5545 621.768 98.385 621.384 99.1937C621.073 99.8472 620.719 100.478 620.338 101.093C620.326 101.114 620.314 101.136 620.302 101.157L620.283 101.192C620.274 101.209 620.264 101.226 620.254 101.243C620.249 101.251 620.244 101.258 620.239 101.265L620.231 101.276L620.223 101.286L620.218 101.294C620.215 101.298 620.213 101.301 620.21 101.305C618.794 103.534 616.941 105.478 614.787 106.953C612.449 108.555 609.441 109.663 606.61 109.078C604.267 108.594 602.404 106.937 601.28 104.809C599.869 102.135 599.548 98.9584 599.756 95.9659C600.01 92.2989 600.933 88.7275 602.849 85.603C604.452 82.9885 606.623 80.8301 609.132 79.2428L609.132 79.2358C616.003 74.7355 622.403 76.0867 624.075 76.5581V86.2782Z" fill="black"/>
<path fill-rule="evenodd" clip-rule="evenodd" d="M199.571 50.2002C200.509 53.4316 200.979 57.1822 200.979 61.4548V110.668L208.618 111.431V114.56H175.172V111.431L182.736 110.668V58.7842C182.736 55.7833 182.477 53.2018 181.957 51.0392C181.438 48.8779 180.845 47.2626 180.177 46.1946C179.51 45.1259 178.682 44.3003 177.693 43.7151C176.704 43.1305 175.913 42.7876 175.32 42.685C174.727 42.5831 174.06 42.5325 173.318 42.5325C170.005 42.5325 166.779 44.4149 163.64 48.1781C160.5 51.9427 158.931 57.1056 158.931 63.6674V110.668L166.569 111.431V114.56H133.124V111.431L140.688 110.668V58.7842C140.688 55.7833 140.44 53.2018 139.946 51.0392C139.451 48.8779 138.87 47.2626 138.203 46.1946C137.536 45.1259 136.72 44.3003 135.756 43.7151C134.792 43.1305 134.013 42.7876 133.42 42.685C132.826 42.5831 132.159 42.5325 131.418 42.5325C128.253 42.5325 125.163 44.7198 122.148 49.0943C119.131 53.4688 117.623 58.8354 117.623 65.1934V110.668L125.262 111.431V114.56H53.766V111.05L63.7775 110.289L55.1202 83.2634H21.7113L13.2008 110.289L23.2123 111.05V114.56H0V111.05L8.97352 110.287L44.0508 2.55135H47.3882L78.6316 95.3703L81.9062 105.016C83.5008 109.713 88.495 112.191 93.061 110.55L93.5663 110.368C97.0792 109.106 99.4237 105.791 99.4237 102.163L99.4544 91.9921V44.0586H90.3327V40.9306L90.3348 40.9299V40.9278C90.3348 40.9278 90.358 40.9264 90.3942 40.9236L94.2868 40.502C99.1573 39.8471 107.623 38.2754 114.414 34.7496L117.625 39.9307V48.9383C123.508 40.0895 130.603 35.6651 138.908 35.6651C140.638 35.6651 142.319 35.8563 143.95 36.2378C145.582 36.6193 147.299 37.2805 149.104 38.2213C150.909 39.1635 152.553 40.6383 154.036 42.6464C155.519 44.6566 156.681 47.0848 157.522 49.9332H157.67C164.295 40.4219 172.007 35.6651 180.808 35.6651C182.538 35.6651 184.219 35.831 185.851 36.1619C187.482 36.4928 189.25 37.2172 191.153 38.3358C193.056 39.4551 194.7 40.9053 196.085 42.685C197.469 44.4662 198.63 46.9703 199.571 50.2002ZM38.2665 30.9344L23.4179 77.5153H53.3105L38.5636 30.9344H38.2665Z" fill="black"/>
<path fill-rule="evenodd" clip-rule="evenodd" d="M352.441 111.889C340.179 111.889 334.049 100.8 334.049 78.6219V73.9677H368.362L368.369 73.96H370.684L375.3 66.5122C375.255 65.8805 375.205 65.2545 375.146 64.6383C374.947 62.4005 374.608 59.9849 374.043 57.6571C373.425 55.0532 372.579 52.5933 371.5 50.2768C370.065 47.2 368.261 44.5926 366.086 42.4559C363.91 40.3199 361.192 38.6547 357.929 37.4582C354.666 36.2637 350.981 35.6658 346.878 35.6658C342.528 35.6658 338.56 36.4661 334.976 38.0694C331.391 39.6714 328.388 41.7954 325.966 44.4401C323.543 47.0855 321.49 50.1622 319.81 53.6725C318.129 57.1821 316.918 60.8322 316.177 64.6215C315.435 68.4107 315.064 72.2892 315.064 76.2568C315.064 88.8724 317.87 98.7913 323.481 106.014C329.092 113.237 337.484 117.226 348.856 117.226C360.621 117.226 369.794 111.33 376.172 100.291L373.279 98.4603C368.088 107.413 361.142 111.889 352.441 111.889ZM334.976 58.1967C335.445 54.678 336.15 51.4255 337.09 48.438C338.028 45.4519 339.351 43.162 341.057 41.5664C342.763 39.9728 344.802 39.1754 347.176 39.1754C351.13 39.1754 353.961 41.149 355.666 45.0977C357.372 49.0465 358.225 54.6906 358.225 62.0295C358.225 64.3369 358.153 66.7448 358.013 69.2419H334.094C334.255 65.0887 334.547 61.4028 334.976 58.1967Z" fill="black"/>
<path d="M446.336 49.781C447.324 52.9856 447.819 56.7243 447.819 60.9969V110.668L455.384 111.431V114.559H422.012V111.431L429.576 110.668V58.7844C429.576 47.95 426.189 42.5328 419.416 42.5328C414.967 42.5328 411.32 44.6181 408.478 48.7889C405.634 52.9603 404.213 58.4288 404.213 65.1937V110.668L411.852 111.431V114.559H378.405V111.431L386.044 110.668V44.0589H376.922V40.895C376.922 40.895 390.841 39.9914 401.002 34.7168L404.213 39.8979V48.9414C410.096 40.0905 417.71 35.6654 427.054 35.6654C428.834 35.6654 430.54 35.8178 432.171 36.1235C433.803 36.4284 435.607 37.1156 437.585 38.1828C439.562 39.2515 441.268 40.6511 442.702 42.3796C444.135 44.1094 445.346 46.5763 446.336 49.781Z" fill="black"/>
<path d="M306.23 110.668V51.5244C306.23 42.9961 306.23 40.5631 306.499 38.1622C306.607 37.2037 306.757 36.2504 306.968 34.9165C307.153 33.7399 307.386 32.2672 307.677 30.2336C308.643 23.4793 306.565 18.0375 302.24 14.0115C300.26 12.1692 297.972 11.2052 295.379 11.1237C293.852 11.0753 292.44 11.4378 291.135 12.1875C291.128 12.1906 291.122 12.1934 291.115 12.196C291.105 12.1997 291.096 12.2031 291.086 12.2068C291.08 12.2093 291.074 12.2119 291.067 12.2149C289.887 12.7615 288.832 13.5632 287.903 14.62C286.975 15.6753 286.305 16.836 285.894 18.0994C285.482 19.3634 285.317 20.6499 285.399 21.9603C285.48 23.2706 285.787 24.5332 286.319 25.7488C286.851 26.9636 287.611 28.0316 288.601 28.9527C289.592 29.8746 290.701 30.5463 291.928 30.9692C293.156 31.3922 294.408 31.5616 295.681 31.4779C296.955 31.3936 298.182 31.0789 299.363 30.5315C300.544 29.9849 301.582 29.2022 302.477 28.1834C302.797 27.8201 303.076 27.4365 303.337 27.0437C303.337 27.0437 306.516 36.0914 293.235 39.2089C293.232 39.2096 293.229 39.2103 293.225 39.211C286.437 41.25 278.939 40.9303 278.939 40.9303V44.0584H288.061V110.668L280.423 111.431V114.559H313.868V111.431L306.23 110.668Z" fill="black"/>
<path d="M556.811 147.977C556.811 147.141 557.032 146.75 557.464 146.75C557.771 146.75 557.98 146.969 558.222 147.223C558.554 147.572 558.948 147.985 559.742 147.985C560.987 147.985 561.783 146.993 561.783 145.313H560.369C560.369 146.157 560.173 146.601 559.717 146.601C559.39 146.601 559.17 146.364 558.917 146.092C558.579 145.728 558.185 145.304 557.405 145.304C556.185 145.304 555.397 146.288 555.397 147.977H556.811Z" fill="black"/>
<path fill-rule="evenodd" clip-rule="evenodd" d="M556.261 158.521H560.758L561.791 161.733H564.137L559.792 149.17H557.337L553 161.733H555.211L556.261 158.521ZM560.251 156.745H556.769L558.447 151.564H558.59L560.251 156.745Z" fill="black"/>
<path fill-rule="evenodd" clip-rule="evenodd" d="M340.859 155.448C340.859 159.496 338.648 162.047 335.083 162.047C331.501 162.047 329.299 159.505 329.299 155.448C329.299 151.39 331.535 148.856 335.083 148.856C338.64 148.856 340.859 151.39 340.859 155.448ZM331.535 155.448C331.535 158.251 332.881 160.053 335.083 160.053C337.26 160.053 338.631 158.251 338.631 155.448C338.631 152.635 337.251 150.85 335.083 150.85C332.914 150.85 331.535 152.635 331.535 155.448Z" fill="black"/>
<path d="M127.33 160.166C125.78 160.166 124.696 159.444 124.561 158.321H122.427C122.537 160.602 124.392 162.048 127.195 162.048C130.159 162.048 131.997 160.524 131.997 158.077C131.997 156.162 130.955 155.099 128.473 154.525L127.067 154.193C125.552 153.837 124.934 153.341 124.934 152.495C124.934 151.425 125.865 150.729 127.271 150.729C128.609 150.729 129.558 151.425 129.711 152.531H131.802C131.701 150.372 129.846 148.856 127.279 148.856C124.544 148.856 122.732 150.372 122.732 152.653C122.732 154.525 123.774 155.656 125.992 156.171L127.576 156.545C129.142 156.919 129.812 157.45 129.812 158.356C129.812 159.41 128.77 160.166 127.33 160.166Z" fill="black"/>
<path fill-rule="evenodd" clip-rule="evenodd" d="M105.069 161.733H102.884V149.17H107.847C110.413 149.17 112.022 150.685 112.022 153.097C112.022 154.751 111.175 156.135 109.719 156.675L112.387 161.733H109.888L107.491 157.023H105.069V161.733ZM105.069 155.238H107.594C108.982 155.238 109.778 154.472 109.778 153.141C109.778 151.834 108.931 151.033 107.542 151.033H105.069V155.238Z" fill="black"/>
<path fill-rule="evenodd" clip-rule="evenodd" d="M73.2173 153.419C73.2173 150.885 71.5486 149.17 69.1097 149.17H64.1808V161.734H66.3656V157.615H69.0162C71.4892 157.615 73.2173 155.909 73.2173 153.419ZM68.5252 155.752H66.3656V151.051H68.5334C70.1086 151.051 70.9982 151.878 70.9982 153.419C70.9982 154.916 70.0833 155.752 68.5252 155.752Z" fill="black"/>
<path d="M83.9437 161.733H91.8529V159.792H86.1279V156.275H91.5402V154.446H86.1279V151.111H91.8529V149.171H83.9437V161.733Z" fill="black"/>
<path d="M142.774 161.733H144.959V149.17H142.774V161.733Z" fill="black"/>
<path fill-rule="evenodd" clip-rule="evenodd" d="M158.65 158.521H163.147L164.18 161.733H166.526L162.182 149.17H159.726L155.39 161.733H157.6L158.65 158.521ZM162.639 156.745H159.158L160.835 151.564H160.979L162.639 156.745Z" fill="black"/>
<path d="M176.948 161.733V149.171H178.845L184.841 157.712H184.985V149.171H187.085V161.733H185.196L179.2 153.184H179.056V161.733H176.948Z" fill="black"/>
<path fill-rule="evenodd" clip-rule="evenodd" d="M200.784 158.521H205.28L206.314 161.733H208.659L204.315 149.17H201.859L197.523 161.733H199.734L200.784 158.521ZM204.772 156.745H201.292L202.969 151.564H203.113L204.772 156.745Z" fill="black"/>
<path d="M220.656 158.321C220.791 159.444 221.875 160.166 223.425 160.166C224.865 160.166 225.907 159.41 225.907 158.356C225.907 157.45 225.237 156.919 223.671 156.545L222.087 156.171C219.869 155.656 218.827 154.525 218.827 152.653C218.827 150.372 220.639 148.856 223.374 148.856C225.941 148.856 227.796 150.372 227.897 152.531H225.805C225.653 151.425 224.704 150.729 223.366 150.729C221.96 150.729 221.029 151.425 221.029 152.495C221.029 153.341 221.647 153.837 223.162 154.193L224.568 154.525C227.05 155.099 228.092 156.162 228.092 158.077C228.092 160.524 226.254 162.048 223.289 162.048C220.487 162.048 218.632 160.602 218.522 158.321H220.656Z" fill="black"/>
<path fill-rule="evenodd" clip-rule="evenodd" d="M285.779 153.419C285.779 150.885 284.11 149.17 281.671 149.17H276.742V161.734H278.927V157.615H281.578C284.051 157.615 285.779 155.909 285.779 153.419ZM281.087 155.752H278.927V151.051H281.095C282.67 151.051 283.56 151.878 283.56 153.419C283.56 154.916 282.645 155.752 281.087 155.752Z" fill="black"/>
<path d="M296.505 161.733H298.69V149.17H296.505V161.733Z" fill="black"/>
<path d="M314.372 160.166C312.822 160.166 311.738 159.444 311.603 158.321H309.468C309.578 160.602 311.433 162.048 314.236 162.048C317.201 162.048 319.038 160.524 319.038 158.077C319.038 156.162 317.996 155.099 315.515 154.525L314.109 154.193C312.593 153.837 311.975 153.341 311.975 152.495C311.975 151.425 312.907 150.729 314.312 150.729C315.651 150.729 316.599 151.425 316.751 152.531H318.843C318.742 150.372 316.887 148.856 314.321 148.856C311.585 148.856 309.773 150.372 309.773 152.653C309.773 154.525 310.815 155.656 313.034 156.171L314.618 156.545C316.184 156.919 316.853 157.45 316.853 158.356C316.853 159.41 315.812 160.166 314.372 160.166Z" fill="black"/>
<path d="M356.022 160.166C354.472 160.166 353.388 159.444 353.253 158.321H351.118C351.229 160.602 353.083 162.048 355.886 162.048C358.851 162.048 360.689 160.524 360.689 158.077C360.689 156.162 359.647 155.099 357.165 154.525L355.759 154.193C354.243 153.837 353.625 153.341 353.625 152.495C353.625 151.425 354.557 150.729 355.963 150.729C357.301 150.729 358.249 151.425 358.402 152.531H360.493C360.392 150.372 358.537 148.856 355.971 148.856C353.236 148.856 351.424 150.372 351.424 152.653C351.424 154.525 352.465 155.656 354.684 156.171L356.268 156.545C357.834 156.919 358.503 157.45 358.503 158.356C358.503 159.41 357.462 160.166 356.022 160.166Z" fill="black"/>
<path fill-rule="evenodd" clip-rule="evenodd" d="M414.68 149.17C418.314 149.17 420.431 151.451 420.431 155.395C420.431 159.426 418.339 161.734 414.68 161.734H410.099V149.17H414.68ZM412.284 159.792H414.392C416.823 159.792 418.203 158.234 418.203 155.43C418.203 152.687 416.789 151.112 414.392 151.112H412.284V159.792Z" fill="black"/>
<path d="M431.25 161.733H439.16V159.792H433.435V156.275H438.847V154.446H433.435V151.111H439.16V149.171H431.25V161.733Z" fill="black"/>
<path d="M449.675 155.456C449.675 151.373 451.818 148.856 455.281 148.856C458.059 148.856 460.202 150.72 460.456 153.341H458.305C457.999 151.834 456.823 150.859 455.281 150.859C453.206 150.859 451.91 152.618 451.91 155.448C451.91 158.286 453.206 160.044 455.29 160.044C456.839 160.044 458.017 159.156 458.313 157.746H460.464C460.176 160.314 458.11 162.048 455.29 162.048C451.826 162.048 449.675 159.523 449.675 155.456Z" fill="black"/>
<path fill-rule="evenodd" clip-rule="evenodd" d="M476.474 162.047C480.04 162.047 482.251 159.496 482.251 155.448C482.251 151.39 480.032 148.856 476.474 148.856C472.926 148.856 470.691 151.39 470.691 155.448C470.691 159.505 472.893 162.047 476.474 162.047ZM476.474 160.053C474.273 160.053 472.926 158.251 472.926 155.448C472.926 152.635 474.307 150.85 476.474 150.85C478.643 150.85 480.024 152.635 480.024 155.448C480.024 158.251 478.651 160.053 476.474 160.053Z" fill="black"/>
<path fill-rule="evenodd" clip-rule="evenodd" d="M495.255 161.733H493.07V149.17H498.032C500.598 149.17 502.208 150.685 502.208 153.097C502.208 154.751 501.36 156.135 499.904 156.675L502.571 161.733H500.074L497.677 157.023H495.255V161.733ZM495.255 155.238H497.778C499.167 155.238 499.963 154.472 499.963 153.141C499.963 151.834 499.117 151.033 497.728 151.033H495.255V155.238Z" fill="black"/>
<path fill-rule="evenodd" clip-rule="evenodd" d="M515.525 158.521H520.022L521.055 161.733H523.401L519.057 149.17H516.601L512.265 161.733H514.475L515.525 158.521ZM519.514 156.745H516.033L517.71 151.564H517.854L519.514 156.745Z" fill="black"/>
<path d="M543.528 157.746C543.266 160.097 541.512 161.751 539.056 162.012L538.616 162.744C539.692 162.787 540.411 163.318 540.411 164.242C540.411 165.469 539.387 166 538.1 166C537.667 166 537.235 165.939 536.862 165.852V164.72C536.99 164.755 537.396 164.833 537.803 164.833C538.311 164.833 538.827 164.711 538.827 164.303C538.827 163.936 538.438 163.815 537.676 163.815H537.125V162.875L537.633 162.012C534.594 161.681 532.738 159.235 532.738 155.456C532.738 151.373 534.881 148.856 538.345 148.856C541.123 148.856 543.266 150.72 543.519 153.341H541.368C541.064 151.834 539.886 150.859 538.345 150.859C536.27 150.859 534.975 152.617 534.975 155.448C534.975 158.286 536.27 160.044 538.354 160.044C539.903 160.044 541.081 159.157 541.377 157.746H543.528Z" fill="black"/>
<path fill-rule="evenodd" clip-rule="evenodd" d="M585.035 155.448C585.035 159.496 582.825 162.047 579.258 162.047C575.677 162.047 573.475 159.505 573.475 155.448C573.475 151.39 575.71 148.856 579.258 148.856C582.816 148.856 585.035 151.39 585.035 155.448ZM575.71 155.448C575.71 158.251 577.057 160.053 579.258 160.053C581.436 160.053 582.808 158.251 582.808 155.448C582.808 152.635 581.427 150.85 579.258 150.85C577.091 150.85 575.71 152.635 575.71 155.448Z" fill="black"/>
<path d="M252.851 158.078C251.257 158.078 249.964 156.749 249.964 155.11C249.964 153.471 251.257 152.141 252.851 152.141C254.445 152.141 255.738 153.471 255.738 155.11C255.738 156.749 254.445 158.078 252.851 158.078Z" fill="black"/>
<path d="M382.561 155.11C382.561 156.749 383.853 158.078 385.448 158.078C387.042 158.078 388.334 156.749 388.334 155.11C388.334 153.471 387.042 152.141 385.448 152.141C383.853 152.141 382.561 153.471 382.561 155.11Z" fill="black"/>
</svg>
