<svg width="390" height="390" viewBox="0 0 390 390" fill="none" xmlns="http://www.w3.org/2000/svg">
<path fill-rule="evenodd" clip-rule="evenodd" d="M225.023 11.9621C225.753 5.60101 222.633 1.51027 216.634 0.820155L209.525 0L207.205 20.1636L214.314 20.9838C220.324 21.6739 224.283 18.3333 225.023 11.9621ZM216.034 3.48062L212.354 3.06168L210.655 17.8132L214.344 18.2333C218.614 18.7334 221.273 16.3829 221.823 11.6221C222.363 6.87123 220.294 3.97071 216.034 3.48062Z" fill="black"/>
<path d="M180.108 10.3218C180.318 12.4222 178.769 14.3126 176.669 14.5226C174.569 14.7326 172.679 13.1824 172.469 11.082C172.259 8.98161 173.809 7.09127 175.909 6.88122C178.009 6.67118 179.898 8.22146 180.108 10.3218Z" fill="black"/>
<path fill-rule="evenodd" clip-rule="evenodd" d="M135.294 24.4344L142.653 22.044L146.112 26.6848L149.282 25.6546L136.034 8.62154L132.794 9.67173L132.104 31.2456L135.224 30.2354L135.294 24.4444V24.4344ZM135.394 12.3722L135.474 12.3422L141.103 19.8736L135.274 21.7739L135.394 12.3722Z" fill="black"/>
<path d="M106.607 33.336L110.697 41.3374L107.887 42.7777L98.6681 24.6944L101.478 23.2642L105.367 30.9055L114.646 26.1747L110.757 18.5333L113.556 17.0931L122.775 35.1763L119.976 36.6066L115.886 28.6051L106.607 33.336Z" fill="black"/>
<path d="M88.7094 33.9961L87.1195 31.7957L74.4811 40.8873L76.071 43.0977L81.1202 39.4671L91.379 53.7397L93.9387 51.8993L83.6699 37.6267L88.7094 33.9961Z" fill="black"/>
<path d="M72.3812 62.4212L61.9125 51.7193L64.1022 49.5789L78.3007 64.0815L76.2609 66.0719L58.2931 62.7413L58.203 62.8313L68.6517 73.5232L66.462 75.6636L52.2738 61.161L54.3136 59.1606L72.2914 62.5012L72.3812 62.4212Z" fill="black"/>
<path d="M59.1728 84.1151L56.9932 82.4648L51.1238 90.2362L46.1043 86.4255L51.6637 79.0842L49.5741 77.5039L44.0148 84.8552L39.2853 81.2746L45.1545 73.5032L42.9949 71.8729L35.2258 82.1448L51.4038 94.3869L59.1728 84.1151Z" fill="black"/>
<path d="M26.0469 96.7493L27.6564 94.041L45.1039 104.416L43.4944 107.124L26.0469 96.7493Z" fill="black"/>
<path fill-rule="evenodd" clip-rule="evenodd" d="M35.2858 122.792C37.0456 118.851 36.1255 115.591 32.8659 114.13C30.3962 113.03 27.8566 113.93 26.4568 116.321L26.3567 116.271C26.8766 114.281 25.757 112.05 23.7972 111.17C20.9975 109.92 18.2078 111.27 16.748 114.561L13.4483 121.962L31.9862 130.233L35.3058 122.792H35.2858ZM24.0372 119.381L22.5971 122.602L17.058 120.132L18.7678 116.301C19.6977 114.22 21.1774 113.46 22.8972 114.23C24.7369 115.051 25.147 116.881 24.0372 119.381ZM24.7971 123.582L26.4968 119.781C27.7067 117.061 29.3664 116.101 31.3761 116.991C33.3759 117.881 33.8359 119.731 32.676 122.332L30.9062 126.303L24.8071 123.582H24.7971Z" fill="black"/>
<path d="M8.98891 154.438L23.4572 158.188L22.7373 160.969L3.08972 155.878L3.99952 152.347L21.3075 150.037L21.3375 149.937L7.31919 139.525L8.229 135.984L27.8866 141.075L27.1567 143.866L12.6984 140.125L12.6784 140.215L25.5968 149.887L25.017 152.147L9.01894 154.348L8.98891 154.438Z" fill="black"/>
<path d="M19.867 185.649L19.8775 185.653L19.8675 185.643L19.867 185.649Z" fill="black"/>
<path fill-rule="evenodd" clip-rule="evenodd" d="M14.5683 183.333L19.867 185.649L19.5877 188.904L0 179.872L0.290004 176.482L21.1274 170.921L20.8474 174.241L15.2282 175.622L14.5683 183.333ZM3.50959 178.552L12.1184 182.323V182.333L12.6384 176.222L3.50959 178.472V178.552Z" fill="black"/>
<path d="M238.331 22.514L247.72 25.0445L247.01 27.685L234.582 24.3244L239.861 4.73084L252.3 8.08145L251.59 10.7019L242.191 8.17146L240.651 13.9025L249.54 16.3029L248.86 18.8234L239.971 16.4229L238.331 22.514Z" fill="black"/>
<path d="M272.997 31.1356C271.438 33.126 269.008 33.646 266.418 32.5058C262.998 31.0056 262.039 27.3149 263.948 22.9641C265.838 18.6534 269.238 16.843 272.617 18.3233C275.147 19.4335 276.447 21.8639 275.917 24.4744L278.777 25.7246C279.987 21.6339 277.937 17.6432 273.727 15.7928C268.538 13.5124 263.578 15.7728 260.999 21.6639C258.399 27.5949 260.089 32.7259 265.308 35.0163C269.588 36.8866 273.487 35.9165 275.877 32.3858L272.997 31.1256V31.1356Z" fill="black"/>
<path fill-rule="evenodd" clip-rule="evenodd" d="M303.574 44.728C300.054 50.139 294.795 51.5193 289.895 48.3387C284.986 45.1481 284.106 39.7771 287.626 34.3662C291.145 28.9552 296.404 27.5549 301.314 30.7455C306.213 33.9261 307.093 39.3171 303.574 44.728ZM299.804 33.0759C296.575 30.9756 292.905 32.1458 290.325 36.1265C287.745 40.0972 288.165 43.9179 291.395 46.0183C294.625 48.1186 298.284 46.9284 300.854 42.9677C303.444 38.997 303.034 35.1763 299.804 33.0759Z" fill="black"/>
<path fill-rule="evenodd" clip-rule="evenodd" d="M326.901 59.3006C329.431 56.4801 329.101 52.9495 325.991 50.159L320.142 44.9081L306.593 60.0208L308.943 62.1211L314.152 56.3101L317.382 59.2006L315.252 67.7721L317.952 70.1926L320.112 60.9809C322.511 62.0111 325.081 61.341 326.911 59.2906L326.901 59.3006ZM315.852 54.4098L320.722 48.9788L323.941 51.8693C325.751 53.4896 325.931 55.51 324.421 57.1903C322.871 58.9206 320.941 58.9806 319.132 57.3603L315.842 54.4098H315.852Z" fill="black"/>
<path fill-rule="evenodd" clip-rule="evenodd" d="M331.61 77.0038L326.201 79.0742L324.111 76.5537L344.419 69.2524L346.588 71.8729L335.63 90.4662L333.5 87.8958L336.54 82.9649L331.61 77.0038ZM342.909 72.723L342.859 72.653V72.663L334.07 76.0136L337.98 80.7345L342.909 72.723Z" fill="black"/>
<path d="M344.749 105.049L342.779 105.209L341.789 105.799L342.279 106.619C342.939 107.729 343.039 108.349 342.519 108.66C341.979 108.99 341.359 108.359 340.889 107.569C340.549 106.999 340.309 106.409 340.219 106.149L338.869 106.959C338.959 107.329 339.339 108.149 339.759 108.83C340.779 110.48 342.299 111.31 343.709 110.47C344.939 109.73 345.069 108.339 344.219 106.829L345.779 106.699C348.168 109.96 351.618 111.06 355.258 109.69L353.648 106.999C351.228 107.719 348.948 106.729 347.498 104.309C345.579 101.108 346.939 97.5475 351.008 95.1071C355.038 92.6966 358.857 93.1867 360.757 96.3473C362.177 98.7077 361.827 101.448 359.887 103.269L361.487 105.949C364.846 103.319 365.486 98.8777 363.116 94.937C360.207 90.0762 354.867 89.046 349.348 92.3466C344.049 95.5171 342.349 100.368 344.749 105.039V105.049Z" fill="black"/>
<path fill-rule="evenodd" clip-rule="evenodd" d="M370.716 135.844C364.716 138.215 359.627 136.284 357.477 130.853L357.467 130.863C355.318 125.423 357.717 120.542 363.717 118.161C369.726 115.781 374.825 117.701 376.975 123.142C379.125 128.573 376.715 133.464 370.716 135.844ZM369.526 132.824C373.925 131.084 375.815 127.733 374.395 124.152V124.142C372.985 120.562 369.316 119.401 364.906 121.142C360.517 122.882 358.637 126.243 360.057 129.823C361.467 133.414 365.136 134.564 369.526 132.824Z" fill="black"/>
<path d="M379.535 120.242C379.683 120.616 379.503 121.027 379.291 121.512C378.987 122.205 378.619 123.047 379.054 124.142C379.714 125.803 381.394 126.363 383.544 125.513L382.864 123.802C381.724 124.252 381.064 124.072 380.804 123.422C380.651 123.038 380.839 122.634 381.059 122.16C381.37 121.488 381.748 120.674 381.314 119.571C380.654 117.911 378.995 117.341 376.825 118.201L377.505 119.932C378.685 119.461 379.305 119.671 379.535 120.252V120.242Z" fill="black"/>
<path d="M369.776 162.019L367.116 162.629L364.256 150.067L384.044 145.556L386.904 158.118L384.254 158.728L382.094 149.237L376.315 150.547L378.355 159.539L375.805 160.119L373.765 151.127L367.616 152.527L369.776 162.019Z" fill="black"/>
<path d="M389.963 178.922C389.613 174.611 386.974 171.771 383.514 172.051C380.594 172.291 378.864 174.281 378.345 178.402L378.065 180.642C377.695 183.393 376.805 184.543 375.235 184.673C373.425 184.823 371.955 183.093 371.745 180.522C371.526 177.832 372.575 175.822 374.555 175.381L374.305 172.321C370.715 172.811 368.686 176.042 369.056 180.612C369.446 185.323 372.085 188.134 375.895 187.814C378.845 187.574 380.394 185.693 380.944 181.383L381.224 179.132C381.574 176.462 382.464 175.341 383.944 175.221C385.794 175.071 387.084 176.712 387.284 179.082C387.484 181.533 386.374 183.313 384.354 183.673L384.604 186.714C388.133 186.323 390.313 183.193 389.963 178.902V178.922Z" fill="black"/>
<path fill-rule="evenodd" clip-rule="evenodd" d="M104.777 349.453L109.827 352.163C114.086 354.454 115.196 358.424 112.777 362.935C110.347 367.456 106.407 368.766 102.148 366.476L97.0982 363.765L104.777 349.453ZM102.968 364.445C105.997 366.076 108.667 365.116 110.487 361.735V361.745C112.297 358.364 111.606 355.594 108.587 353.974L105.967 352.563L100.348 363.035L102.968 364.445Z" fill="black"/>
<path d="M118.826 374.597L128.415 378.378L129.215 376.348L121.975 373.487L123.825 368.796L130.684 371.507L131.454 369.556L124.595 366.846L126.345 362.425L133.584 365.296L134.384 363.265L124.795 359.484L118.826 374.597Z" fill="black"/>
<path d="M141.573 370.326C142.293 367.646 145.153 366.426 148.482 367.326H148.502C151.822 368.216 153.592 370.707 152.932 373.467L150.572 372.837C150.842 371.217 149.812 369.906 147.912 369.396C146.072 368.906 144.483 369.436 144.103 370.867C143.803 372.007 144.403 372.987 146.313 373.967L147.932 374.787C151.022 376.358 152.012 378.038 151.402 380.318C150.602 383.279 147.782 384.509 144.133 383.529C140.583 382.579 138.703 380.168 139.303 377.338L141.673 377.978C141.473 379.588 142.693 380.918 144.783 381.478C146.772 382.009 148.462 381.368 148.842 379.968C149.172 378.748 148.542 377.768 146.573 376.748L144.963 375.927C142.003 374.427 140.963 372.587 141.573 370.326Z" fill="black"/>
<path fill-rule="evenodd" clip-rule="evenodd" d="M168.67 371.797L163.001 370.987L160.701 387.049L166.37 387.86C171.159 388.55 174.399 385.959 175.129 380.888C175.859 375.817 173.449 372.477 168.67 371.797ZM172.579 380.548C172.039 384.349 169.86 386.159 166.45 385.669L163.51 385.249L165.19 373.487L168.13 373.907C171.529 374.397 173.119 376.758 172.579 380.548Z" fill="black"/>
<path d="M195.117 390L184.808 389.74L185.218 373.497L195.527 373.757L195.477 375.927L187.688 375.727L187.568 380.478L194.937 380.668L194.887 382.759L187.518 382.579L187.387 387.62L195.177 387.81L195.117 390Z" fill="black"/>
<path d="M221.183 386.029V385.969L224.283 381.768C226.733 378.468 227.413 377.058 227.133 375.217C226.763 372.687 224.333 370.987 221.183 371.457C217.954 371.937 215.904 374.397 216.344 377.318L218.704 376.968C218.454 375.257 219.654 373.787 221.493 373.517C223.193 373.267 224.483 374.257 224.703 375.737C224.893 376.998 224.523 377.888 222.723 380.368L217.904 386.919L218.154 388.63L229.142 386.999L228.832 384.899L221.183 386.029Z" fill="black"/>
<path fill-rule="evenodd" clip-rule="evenodd" d="M237.191 377.068C235.872 372.097 237.292 368.336 241.041 367.336H241.031C244.781 366.326 247.86 368.876 249.19 373.847C250.53 378.848 249.15 382.609 245.38 383.619C241.601 384.629 238.531 382.069 237.191 377.068ZM239.661 376.408C240.681 380.208 242.571 382.189 244.84 381.578C247.1 380.968 247.76 378.328 246.74 374.517C245.741 370.757 243.821 368.776 241.581 369.376C239.341 369.976 238.661 372.667 239.661 376.408Z" fill="black"/>
<path fill-rule="evenodd" clip-rule="evenodd" d="M260.849 360.755C257.239 362.195 256.279 366.096 258.179 370.877C260.099 375.687 263.458 377.868 267.088 376.418C270.717 374.967 271.637 371.077 269.718 366.266C267.808 361.485 264.448 359.324 260.839 360.765L260.849 360.755ZM266.308 374.447C264.118 375.317 262.009 373.577 260.549 369.926C259.109 366.326 259.469 363.575 261.619 362.715C263.768 361.855 265.908 363.595 267.348 367.206C268.808 370.867 268.468 373.577 266.298 374.437L266.308 374.447Z" fill="black"/>
<path d="M280.496 360.095C280.626 358.794 281.516 357.604 282.926 356.844L282.906 356.834C285.636 355.354 288.675 356.274 290.155 359.004C291.735 361.925 290.675 365.126 287.585 366.796C284.736 368.346 281.716 367.726 280.236 365.296L282.356 364.155C283.276 365.486 285.016 365.806 286.606 364.945C288.415 363.965 288.985 362.035 288.026 360.255C287.076 358.494 285.136 357.914 283.356 358.874C282.076 359.565 281.356 360.655 281.316 362.035L279.376 363.085L275.627 354.464L284.146 349.863L285.156 351.733L278.437 355.364L280.446 360.125L280.496 360.095Z" fill="black"/>
<path fill-rule="evenodd" clip-rule="evenodd" d="M251.34 264.948L245.371 247.874L188.447 83.595H182.368L118.466 274.269L102.118 275.619V281.831H144.403V275.619L126.165 274.269L141.673 226.441H202.536L218.304 274.269L200.066 275.619V281.831H271.647V276.3C263.978 276.3 254.229 273.259 251.33 264.948H251.34ZM144.783 216.269L171.829 133.824L199.236 216.269H144.783Z" fill="black"/>
<path d="M305.993 265.072C307.286 273.038 301.878 280.544 293.914 281.837C285.95 283.131 278.447 277.721 277.154 269.755C275.861 261.789 281.269 254.283 289.233 252.99C297.197 251.697 304.7 257.106 305.993 265.072Z" fill="black"/>
<path d="M11.9685 223.31L10.2187 223.58C16.708 266.048 37.9755 305.315 70.0817 334.17L71.2615 332.85C39.4553 304.275 18.3978 265.378 11.9685 223.31Z" fill="black"/>
<path d="M319.622 334.16L318.442 332.84C350.248 304.265 371.306 265.358 377.735 223.3L379.485 223.57C372.995 266.038 351.728 305.315 319.622 334.16Z" fill="black"/>
</svg>
