<svg width="208" height="202" viewBox="0 0 208 202" fill="none" xmlns="http://www.w3.org/2000/svg">
<path fill-rule="evenodd" clip-rule="evenodd" d="M152.099 184.612L146.014 167.232L87.9938 0H81.7973L16.6633 194.101L0 195.476V201.799H43.1001V195.476L24.5107 194.101L40.3178 145.413H102.354L118.426 194.101L99.8365 195.476V201.799H172.798V196.168C164.981 196.168 155.044 193.073 152.088 184.612H152.099ZM43.4875 135.058L71.0554 51.1318L98.9905 135.058H43.4875Z" fill="black"/>
<path d="M207.805 184.739C209.123 192.848 203.611 200.489 195.494 201.806C187.376 203.122 179.728 197.615 178.41 189.506C177.093 181.397 182.605 173.756 190.722 172.439C198.839 171.123 206.488 176.63 207.805 184.739Z" fill="black"/>
</svg>
